<svg id="Lager_1" data-name="Lager 1" xmlns="http://www.w3.org/2000/svg" viewBox="0 0 192.39 99.89"><defs><style>.cls-1{fill:#fff;}</style></defs><title>elexir_logga_vit</title><path class="cls-1" d="M109.58,74.2a11.78,11.78,0,0,0-.71,2.55c-.17,1.22.27,1.6.41,1.72a3.53,3.53,0,0,0,2.34.63,4.72,4.72,0,0,0,4-2.2,14.28,14.28,0,0,0,2.35-6.47c.53-3.8-.38-6.8-2.78-9.16s-6.55-3.59-12.26-3.59A35.33,35.33,0,0,0,90.59,59.8a24.8,24.8,0,0,0-9.42,6,15.48,15.48,0,0,0-4.33,8.7A9.33,9.33,0,0,0,78,80.76a8.77,8.77,0,0,0,5.35,3.88l4,1.22-4.11,1C78.07,88.11,73.91,90.17,71,93a16.72,16.72,0,0,0-5.22,10,10.09,10.09,0,0,0,1.68,7.46c1.53,2.23,4.19,4,7.89,5.32a45.49,45.49,0,0,0,14.77,2,80.45,80.45,0,0,0,13.52-1.19A48.79,48.79,0,0,0,115,113.45a14.49,14.49,0,0,0,1.87-1,24,24,0,0,1-1.07-5.4,76.89,76.89,0,0,1-10.39,2.84,66.64,66.64,0,0,1-13.27,1.45c-6.42,0-10.9-.81-13.72-2.46a7.48,7.48,0,0,1-3.84-8,10.78,10.78,0,0,1,2.79-5.69A16.62,16.62,0,0,1,84.13,91,33.78,33.78,0,0,1,94.8,89.2c2.38,0,3.6-1.25,4-3.92.11-.81,0-1.19-.08-1.29s-.28-.29-1.35-.34c-4.53-.16-7.66-1.05-9.55-2.74a7.14,7.14,0,0,1-2.39-6.68,10.94,10.94,0,0,1,5.25-7.9,20,20,0,0,1,10.94-2.82c3.41,0,5.74.64,7.14,2a5.76,5.76,0,0,1,1.72,5.27A29,29,0,0,1,109.58,74.2Z" transform="translate(-65.61 -50.94)"/><path class="cls-1" d="M135.79,110.14a10.71,10.71,0,0,1-6.16,1.92,4.53,4.53,0,0,1-3.8-1.73,8.45,8.45,0,0,1-1.32-4.95v-.45l.3-.34A134.84,134.84,0,0,0,141,82c4.21-7.5,6.74-14.16,7.53-19.8.53-3.8.33-6.72-.6-8.68a4.11,4.11,0,0,0-4-2.6c-3.73,0-7.41,2.59-10.93,7.7A79.29,79.29,0,0,0,123.5,78a111.25,111.25,0,0,0-5.12,20.14,40.63,40.63,0,0,0-.4,8.13,23.09,23.09,0,0,0,.74,4.49,18.28,18.28,0,0,0,.57,2c1.35,3.45,3.86,5.13,7.67,5.13a15.32,15.32,0,0,0,8.13-2.32,34.47,34.47,0,0,0,3.68-2.63,13.75,13.75,0,0,1-1.16-4.14C137,109.27,136.33,109.76,135.79,110.14ZM125.4,95.29a118.65,118.65,0,0,1,4.23-17.44,114.39,114.39,0,0,1,5.91-15.23c2.31-4.71,4-6.72,5.69-6.72a2.26,2.26,0,0,1,1.76.79c.89,1,1.09,2.9.64,6.08a53.51,53.51,0,0,1-5.39,16,114.11,114.11,0,0,1-10.79,17.34l-2.77,3.7Z" transform="translate(-65.61 -50.94)"/><path class="cls-1" d="M163.86,110.17c0-.14.06-.26.08-.39-.35.19-.68.4-1,.58a19.07,19.07,0,0,1-8.34,2.43c-3.91,0-6.45-1.37-7.54-4.08l-.5-1.23,1.29-.31c5.74-1.37,10-3.21,12.58-5.49a12.63,12.63,0,0,0,4.46-8c.36-2.56-.07-4.5-1.33-5.93s-3.09-2.13-5.59-2.13A15.5,15.5,0,0,0,149.65,88a20.32,20.32,0,0,0-6.5,6.55,22.7,22.7,0,0,0-3.28,9v0c-.08.6-.08,1.15-.11,1.72s-.09,1.11-.07,1.62a12.46,12.46,0,0,0,.92,4.38,10.05,10.05,0,0,0,.5,1.08,9.56,9.56,0,0,0,.64,1c.17.24.29.51.49.73,2.2,2.51,5.73,3.78,10.48,3.78a22.4,22.4,0,0,0,10.44-2.65c.35-.18.66-.37,1-.56A10.08,10.08,0,0,1,163.86,110.17Zm-17.28-7.76a17.89,17.89,0,0,1,3.17-8.27c1.76-2.4,3.76-3.62,5.94-3.62a3.44,3.44,0,0,1,2.87,1.29,4,4,0,0,1,.68,3.09,8.29,8.29,0,0,1-3.61,5.52,20.64,20.64,0,0,1-7.66,3.27l-1.33.3-.3.07.11-.76Z" transform="translate(-65.61 -50.94)"/><path class="cls-1" d="M205.11,108.44c-.83.7-1.62,1.34-2.34,1.84a11,11,0,0,1-6.3,2.14,6,6,0,0,1-5.16-2.33c-1.1-1.49-1.48-3.56-1.12-6.15a25.77,25.77,0,0,1,1.56-5.9,20.58,20.58,0,0,1,2.44-4.61c1.06-1.44,2-2.11,3-2.11a2.06,2.06,0,0,1,2,1.05,4.17,4.17,0,0,1,.38,1.82,2.51,2.51,0,0,0,.38,1.25s.24.2,1.19.2a3.16,3.16,0,0,0,2.37-1.44,9.32,9.32,0,0,0,1.73-4.6c.22-1.57,0-2.67-.58-3.28-1.3-1.3-4.83-1.43-8.44.36A17.52,17.52,0,0,0,191,90.82l-1.33,1.5-.61-1.91a6.74,6.74,0,0,0-2.74-3.75,8.43,8.43,0,0,0-4.72-1.31,8.17,8.17,0,0,0-5.42,1.86,7.71,7.71,0,0,0-2.69,5.13,3.78,3.78,0,0,0,.27,2.66,1.57,1.57,0,0,0,1.47.65,3,3,0,0,0,1.92-.43,4.88,4.88,0,0,0,1.16-1.52A6.39,6.39,0,0,1,179.46,92a2.83,2.83,0,0,1,2-.72c.85,0,2,.47,2.47,2.68a13.67,13.67,0,0,1,.05,4.84,25.4,25.4,0,0,1-1.81,6.59,17.34,17.34,0,0,1-3,4.82c-2.14,2.33-4.72,2.5-5.9,1.16a2.49,2.49,0,0,1-.28-.57,3.26,3.26,0,0,1-.29-1.59,4.26,4.26,0,0,1,0-.48q.05-.38.66-3.09c.21-.85.34-1.42.39-1.74a.64.64,0,0,0,0-.43c-.08-.09-.42-.25-1.19-.25a5.44,5.44,0,0,0-2.83.76,5.61,5.61,0,0,0-1.39,1.12c-.08.09-.12.22-.2.32a8.83,8.83,0,0,0-1.38,2.51,12,12,0,0,0-.66,2.5,8.43,8.43,0,0,0,0,2.94,5.52,5.52,0,0,0,.38,1.12,5.11,5.11,0,0,0,.59,1c.07.09.11.19.19.28,1.12,1.31,2.82,1.94,5.17,1.94,3.51,0,6.71-1.61,9.78-4.91l1.11-1.19.74,1.44a7.87,7.87,0,0,0,3.53,3.46,12.77,12.77,0,0,0,5.9,1.26,16.16,16.16,0,0,0,8.44-2.36,37,37,0,0,0,3.36-2.34A18.16,18.16,0,0,1,205.11,108.44Z" transform="translate(-65.61 -50.94)"/><path class="cls-1" d="M207.61,112.76a10.06,10.06,0,0,0,.34,1.26,8.67,8.67,0,0,0,.4,1.07h0c.92,1.84,2.69,2.74,5.42,2.74s5.8-1.43,9.27-4.19a35.28,35.28,0,0,1,.25-5.22c-.65.59-1.26,1.14-1.77,1.56-3.83,3.14-6.34,2.44-7.16.16a8.34,8.34,0,0,1-.17-3.91c.28-2,1.38-5.64,3.34-11.13a58.76,58.76,0,0,0,2.53-8.27c.07-.48-.07-.64-.11-.69s-.56-.5-2.14-.5a5.2,5.2,0,0,0-3,.66A6.26,6.26,0,0,0,213,89a87.88,87.88,0,0,0-3.47,9.51c-.39,1.27-.71,2.43-1,3.54q-.28,1.07-.49,2t-.39,2c0,.23-.09.48-.12.7a20.1,20.1,0,0,0-.17,4.6A12.14,12.14,0,0,0,207.61,112.76Z" transform="translate(-65.61 -50.94)"/><path class="cls-1" d="M257.49,96.4a2.11,2.11,0,0,0-1.72-.74H253.5l.53-1.52a32,32,0,0,0,1.49-5.05,3.52,3.52,0,0,0-.4-2.68c-1-1.2-3.74-1.05-7.08.77a25.51,25.51,0,0,0-6.34,5.4,49.16,49.16,0,0,0-6.69,10l-4.12,7.87,2-8.65c.5-2.15,1-4,1.52-5.53s1.14-3.2,1.91-5.17a28.81,28.81,0,0,0,1.77-5,1.27,1.27,0,0,0,0-.36,9.12,9.12,0,0,0-1.27-.09,7.29,7.29,0,0,0-3.76.82,5.61,5.61,0,0,0-2.14,2.6,63.81,63.81,0,0,0-4.29,13c-.13.62-.23,1.25-.35,1.87s-.25,1.32-.35,2c-.05.32-.12.64-.17,1a48.45,48.45,0,0,0-.46,4.84c0,.56,0,1.06,0,1.54s0,1,.09,1.45a9.8,9.8,0,0,0,.17,1.1c.36,1.44,1.07,2.06,2.39,2.06a3.78,3.78,0,0,0,2.73-.84c.46-.45,1.22-1.55,2.22-4.27A61.84,61.84,0,0,1,237,104a44.53,44.53,0,0,1,4.54-6.65c1.71-2,2.91-2.85,4-2.85a1.83,1.83,0,0,1,1.5.75,2.28,2.28,0,0,1,.35,1.72,17,17,0,0,1-.4,1.75c-.23,1-.41,2-.54,2.86a3.75,3.75,0,0,0,.62,3.06,2.89,2.89,0,0,0,2.39,1.05,6.85,6.85,0,0,0,4.24-1.59,14.1,14.1,0,0,0,3.64-4.2,5.06,5.06,0,0,0,.59-1.64A2.26,2.26,0,0,0,257.49,96.4Z" transform="translate(-65.61 -50.94)"/><path class="cls-1" d="M227.72,73.29a3.92,3.92,0,0,0-1.16-3.73,6.16,6.16,0,0,0-4.21-1.32h-.12a7.36,7.36,0,0,1-3.31,2.37,4.73,4.73,0,0,1,0,3.58l-.18.41-.38-.24a8.58,8.58,0,0,1-2.49-2.23,5.08,5.08,0,0,1-.91.52,6.16,6.16,0,0,0-.47,1.58,4.61,4.61,0,0,0,1,4q1.34,1.43,4.41,1.43a8.19,8.19,0,0,0,5.29-1.72A7,7,0,0,0,227.72,73.29ZM225.19,72c-.67-2.12-2.15-1.72-2.19-2.46,0-.34,3.15.36,3.56,1.93.46,1.76-.86,3.83-.86,3.83A15.34,15.34,0,0,0,225.19,72Z" transform="translate(-65.61 -50.94)"/><path class="cls-1" d="M216.28,70.58l0,.11.1.74c.07.53,1.09,1.42,2,2a4.13,4.13,0,0,0-.34-3l-.38-.64.74.06c.78.07,1.81-.7,2.7-1.56a15.68,15.68,0,0,0,1.16-1.27h-.18c-3.91,0-5.17,1.81-5.18,1.83l-.59.88-.11-1c-.1-.94-1.24-1.06-1.76-1.06a1.66,1.66,0,0,0,.45,2l.83.51-1,.19c-.87.18-1.49,1.29-1.8,2.07a4.39,4.39,0,0,0,2.78-1.19Z" transform="translate(-65.61 -50.94)"/><path class="cls-1" d="M136.68,127.74a.38.38,0,0,0-.44.43v17.45a4.39,4.39,0,0,1-.37,1.5,4.57,4.57,0,0,1-.88,1.32,4.27,4.27,0,0,1-1.34.95,4.14,4.14,0,0,1-1.76.36,5.12,5.12,0,0,1-2-.37,3.27,3.27,0,0,1-.67-.37,3.34,3.34,0,0,1-.48-.42.39.39,0,0,0-.31-.18.67.67,0,0,0-.4.24.26.26,0,0,0-.09.18.84.84,0,0,0,.24.49,3.57,3.57,0,0,0,1.65,1,7.29,7.29,0,0,0,2.11.31,5.47,5.47,0,0,0,1.92-.34,4.92,4.92,0,0,0,1.59-1,4.83,4.83,0,0,0,1.11-1.49,5,5,0,0,0,.49-2,.35.35,0,0,0,0-.12V128.17A.38.38,0,0,0,136.68,127.74Z" transform="translate(-65.61 -50.94)"/><path class="cls-1" d="M153.4,135.47a.39.39,0,0,0-.44.44v8.67a5.27,5.27,0,0,1-3.26,4.93,5.65,5.65,0,0,1-4.2,0,5.26,5.26,0,0,1-1.69-1.1,5.16,5.16,0,0,1-1.15-1.66,5.45,5.45,0,0,1-.45-2.08v-8.78a.39.39,0,0,0-.43-.44q-.47,0-.47.44v8.67a6,6,0,0,0,.5,2.44,6.31,6.31,0,0,0,3.34,3.32,6.34,6.34,0,0,0,5.56-.33,6.39,6.39,0,0,0,2.25-2.21V150a.39.39,0,0,0,.44.44q.47,0,.47-.44V135.91Q153.87,135.47,153.4,135.47Z" transform="translate(-65.61 -50.94)"/><path class="cls-1" d="M159.34,135.46c-.31,0-.47.15-.47.44V150c0,.3.16.44.47.44s.43-.15.43-.44V135.9A.39.39,0,0,0,159.34,135.46Z" transform="translate(-65.61 -50.94)"/><path class="cls-1" d="M159.29,130.1a.91.91,0,1,0,.65.27A.88.88,0,0,0,159.29,130.1Z" transform="translate(-65.61 -50.94)"/><path class="cls-1" d="M176.44,148a.47.47,0,0,0-.29.12,6.68,6.68,0,0,1-2.14,1.35,7.07,7.07,0,0,1-2.6.47,6.62,6.62,0,0,1-2.68-.55,7,7,0,0,1-3.69-3.69,6.83,6.83,0,0,1,0-5.37,7,7,0,0,1,3.69-3.7,6.62,6.62,0,0,1,2.68-.55,6.83,6.83,0,0,1,2.54.47,7.22,7.22,0,0,1,2.14,1.31.43.43,0,0,0,.29.15.4.4,0,0,0,.27-.16.48.48,0,0,0,.15-.31.53.53,0,0,0-.24-.38,9.08,9.08,0,0,0-2.31-1.42,7.05,7.05,0,0,0-2.79-.54,7.63,7.63,0,0,0-3,.61,7.79,7.79,0,0,0-2.47,1.67,7.92,7.92,0,0,0-1.66,2.48,7.82,7.82,0,0,0,0,6.06,7.92,7.92,0,0,0,1.66,2.48,7.79,7.79,0,0,0,2.47,1.67,7.89,7.89,0,0,0,5.84.1,7.83,7.83,0,0,0,2.41-1.5v0a.49.49,0,0,0,.24-.37.44.44,0,0,0-.15-.31A.44.44,0,0,0,176.44,148Z" transform="translate(-65.61 -50.94)"/><path class="cls-1" d="M192.76,139.65a8.09,8.09,0,0,0-1.56-2.33,7.25,7.25,0,0,0-2.22-1.56,6.3,6.3,0,0,0-2.66-.57,6.56,6.56,0,0,0-2.8.61,7.3,7.3,0,0,0-2.3,1.67A8.09,8.09,0,0,0,179.1,143a7.62,7.62,0,0,0,.61,3,7.77,7.77,0,0,0,1.67,2.47,7.9,7.9,0,0,0,2.48,1.66,7.59,7.59,0,0,0,3,.61,7.69,7.69,0,0,0,2.83-.51,7.47,7.47,0,0,0,2.38-1.5v0a.54.54,0,0,0,.24-.4.4.4,0,0,0-.15-.31.45.45,0,0,0-.28-.13.41.41,0,0,0-.29.14,6.88,6.88,0,0,1-2.14,1.35,7.13,7.13,0,0,1-2.63.47,6.78,6.78,0,0,1-2.66-.53,7,7,0,0,1-2.19-1.44,6.91,6.91,0,0,1-1.49-2.15,6.47,6.47,0,0,1-.55-2.66h13.1a.39.39,0,0,0,.43-.44v-.07a.24.24,0,0,0,0-.1A8.31,8.31,0,0,0,192.76,139.65ZM180,142.21a7.33,7.33,0,0,1,.71-2.42,7.12,7.12,0,0,1,1.41-1.95,6.5,6.5,0,0,1,1.92-1.3,5.6,5.6,0,0,1,2.28-.47,5.67,5.67,0,0,1,2.29.47,6.5,6.5,0,0,1,1.94,1.31,7,7,0,0,1,1.4,2,6.89,6.89,0,0,1,.67,2.41Z" transform="translate(-65.61 -50.94)"/><path class="cls-1" d="M222.34,140.75a6.53,6.53,0,0,0-1.37-1.41,5.08,5.08,0,0,0-1.7-.86,6.33,6.33,0,0,0,1.28-.89,5.86,5.86,0,0,0,1-1.16,5.54,5.54,0,0,0,.66-1.41,5.46,5.46,0,0,0,.24-1.62,5.57,5.57,0,0,0-1.71-4.06,6,6,0,0,0-4.12-1.63h-9.23a.33.33,0,0,0-.16,0,.27.27,0,0,0-.1.12.63.63,0,0,0,0,.28v22.07l.08.12a.29.29,0,0,0,.17.09h10.6a5.6,5.6,0,0,0,2.19-.53,6.14,6.14,0,0,0,1.8-1.29,6,6,0,0,0,1.21-1.86,5.76,5.76,0,0,0,.44-2.24,6.16,6.16,0,0,0-.33-2A6.79,6.79,0,0,0,222.34,140.75Zm-14.4-12.15h8.67a5.13,5.13,0,0,1,3.53,1.4,4.81,4.81,0,0,1,1.08,1.54,4.67,4.67,0,0,1,.4,1.92,4.61,4.61,0,0,1-.4,1.92,4.77,4.77,0,0,1-1.08,1.52,4.91,4.91,0,0,1-1.6,1,5.28,5.28,0,0,1-1.94.36h-8.67Zm14.4,17.86a5.35,5.35,0,0,1-1,1.58,5,5,0,0,1-1.53,1.1,5.09,5.09,0,0,1-1.86.47v0h-10V139.11h9.8a4,4,0,0,1,1.88.47,5.56,5.56,0,0,1,1.59,1.23,6.17,6.17,0,0,1,1.1,1.74,5.09,5.09,0,0,1,.41,2A4.85,4.85,0,0,1,222.34,146.46Z" transform="translate(-65.61 -50.94)"/><path class="cls-1" d="M240.75,135.44a.42.42,0,0,0-.47.47v3.71a6.32,6.32,0,0,0-1-1.88,6.9,6.9,0,0,0-1.52-1.44,7,7,0,0,0-4-1.24,6.74,6.74,0,0,0-2.86.62,7.46,7.46,0,0,0-2.34,1.69,8.17,8.17,0,0,0,0,11.1,7.53,7.53,0,0,0,2.34,1.68,6.85,6.85,0,0,0,5,.28,7.11,7.11,0,0,0,1.92-1,6.91,6.91,0,0,0,1.53-1.48,5.84,5.84,0,0,0,1-1.9V150q0,.44.47.44t.43-.44V135.91Q241.18,135.44,240.75,135.44Zm-1,10.19a7.24,7.24,0,0,1-1.39,2.22,6.49,6.49,0,0,1-2.06,1.5,6.06,6.06,0,0,1-5,0,6.43,6.43,0,0,1-2-1.5,7.42,7.42,0,0,1-1.37-7.62,7.12,7.12,0,0,1,1.37-2.22,6.59,6.59,0,0,1,2-1.5,6,6,0,0,1,5,0,6.65,6.65,0,0,1,2.06,1.5,7.13,7.13,0,0,1,1.39,2.22,7.2,7.2,0,0,1,.51,2.71A7.1,7.1,0,0,1,239.72,145.63Z" transform="translate(-65.61 -50.94)"/><path class="cls-1" d="M254.51,136.42a6.28,6.28,0,0,0-1.69-.83,6.19,6.19,0,0,0-1.92-.3,5.6,5.6,0,0,0-1.46.19,4.67,4.67,0,0,0-1.31.57,4.31,4.31,0,0,0-1,.95,4.15,4.15,0,0,0-.7,1.31V136a.4.4,0,0,0-.46-.44.39.39,0,0,0-.44.44v14a.39.39,0,0,0,.44.44.4.4,0,0,0,.46-.44l.08-8.61a6,6,0,0,1,.33-2,5.26,5.26,0,0,1,.94-1.66,4.41,4.41,0,0,1,1.43-1.11,4,4,0,0,1,1.8-.4,4.84,4.84,0,0,1,1.57.27,6.16,6.16,0,0,1,1.4.68.32.32,0,0,0,.15.08l.18,0a.4.4,0,0,0,.31-.13.46.46,0,0,0,.12-.33.34.34,0,0,0-.07-.22A1,1,0,0,0,254.51,136.42Z" transform="translate(-65.61 -50.94)"/></svg>